<?xml version="1.0" standalone="no"?>
<!DOCTYPE svg PUBLIC "-//W3C//DTD SVG 20010904//EN"
 "http://www.w3.org/TR/2001/REC-SVG-20010904/DTD/svg10.dtd">
<svg version="1.0" xmlns="http://www.w3.org/2000/svg"
 width="160.000000pt" height="160.000000pt" viewBox="0 0 160.000000 160.000000"
 preserveAspectRatio="xMidYMid meet">

<g transform="translate(0.000000,160.000000) scale(0.100000,-0.100000)"
fill="#000000" stroke="none">
<path d="M537 1229 c-27 -4 -66 -14 -86 -23 -21 -8 -62 -14 -92 -14 -30 0 -65
-3 -77 -6 -44 -14 -162 -289 -162 -378 0 -27 1 -27 21 -10 31 26 60 87 48 99
-12 12 15 73 31 73 13 0 13 -6 -2 -30 -10 -16 -10 -24 0 -38 7 -9 15 -23 18
-30 8 -15 -34 -61 -84 -94 l-34 -23 6 -65 c2 -36 19 -110 36 -165 18 -55 34
-129 37 -163 6 -64 22 -87 46 -63 8 8 5 52 -11 168 -27 189 -28 255 -6 274 8
7 28 40 43 73 38 85 52 94 126 84 11 -2 19 2 19 7 -1 6 -5 35 -8 65 -4 43 -1
34 17 -40 13 -52 26 -101 31 -108 13 -21 33 -13 61 24 15 20 52 51 82 71 43
27 60 46 79 86 13 29 24 63 24 76 0 28 -78 148 -100 153 -8 2 -37 1 -63 -3z
m-257 -179 c0 -24 -26 -38 -42 -22 -16 16 -2 42 22 42 13 0 20 -7 20 -20z"/>
<path d="M955 1173 c-80 -14 -227 -13 -274 2 l-24 8 26 -35 c34 -44 34 -84 1
-153 -21 -45 -36 -61 -85 -90 -58 -36 -59 -37 -59 -81 0 -65 -51 -214 -98
-284 -29 -43 -44 -77 -48 -113 -5 -34 -15 -59 -31 -74 -45 -46 -23 -70 67 -75
l54 -3 0 65 c1 56 5 71 33 110 17 25 61 74 97 108 62 60 98 115 132 202 10 25
13 27 9 8 -3 -14 -8 -33 -11 -42 -5 -13 11 -24 69 -51 94 -43 175 -65 245 -65
44 0 57 -4 77 -26 14 -15 27 -42 31 -61 10 -52 -3 -152 -26 -194 -16 -33 -17
-39 -4 -50 14 -12 121 -8 143 5 6 4 8 38 4 90 -6 81 5 215 15 186 3 -8 14 -27
24 -43 38 -53 68 -147 62 -188 -9 -51 11 -58 73 -28 61 30 64 51 20 120 -54
85 -79 138 -103 219 -13 43 -25 69 -28 60 -3 -8 -15 -40 -25 -70 -11 -30 -20
-49 -20 -42 -1 7 11 45 25 85 14 39 31 99 38 132 l13 59 16 -49 c10 -28 17
-80 17 -124 0 -58 5 -84 20 -109 11 -17 24 -32 30 -32 13 0 13 1 -4 41 -7 19
-19 78 -25 131 -14 120 -51 241 -91 297 -45 62 -197 154 -270 164 -19 2 -71
-2 -115 -10z"/>
<path d="M710 655 c-11 -24 -27 -48 -34 -54 -11 -9 -9 -27 11 -98 13 -47 33
-104 44 -126 19 -37 19 -40 3 -58 -9 -10 -14 -25 -10 -34 5 -13 16 -15 68 -9
35 3 67 10 72 15 6 6 1 29 -13 61 -38 87 -43 118 -39 214 l4 92 -42 21 -43 20
-21 -44z"/>
</g>
</svg>
